<svg xmlns="http://www.w3.org/2000/svg" viewBox="0 0 512 512" fill="none">
  <defs>
    <linearGradient id="mainGrad" x1="0" y1="0" x2="1" y2="1">
      <stop offset="0%" stop-color="#10b981"/>
      <stop offset="55%" stop-color="#059669"/>
      <stop offset="100%" stop-color="#0d9488"/>
    </linearGradient>
    <linearGradient id="goldGrad" x1="0" y1="0" x2="1" y2="1">
      <stop offset="0%" stop-color="#fbbf24"/>
      <stop offset="100%" stop-color="#f59e0b"/>
    </linearGradient>
    <radialGradient id="glow" cx="50%" cy="45%" r="55%">
      <stop offset="0%" stop-color="#34d399" stop-opacity="0.35"/>
      <stop offset="100%" stop-color="#34d399" stop-opacity="0"/>
    </radialGradient>
    <filter id="shadow" x="-20%" y="-20%" width="140%" height="140%">
      <feGaussianBlur in="SourceAlpha" stdDeviation="8"/>
      <feOffset dx="0" dy="6" result="off"/>
      <feComponentTransfer><feFuncA type="linear" slope="0.25"/></feComponentTransfer>
      <feMerge><feMergeNode/><feMergeNode in="SourceGraphic"/></feMerge>
    </filter>
  </defs>
  <rect x="32" y="32" width="448" height="448" rx="104" fill="url(#mainGrad)"/>
  <rect x="32" y="32" width="448" height="448" rx="104" fill="url(#glow)"/>
  <circle cx="256" cy="232" r="150" stroke="#ffffff" stroke-opacity="0.08" stroke-width="2" fill="none"/>
  <circle cx="256" cy="232" r="118" stroke="#ffffff" stroke-opacity="0.06" stroke-width="2" fill="none"/>
  <g filter="url(#shadow)">
    <path d="M 148 200 L 256 158 L 364 200 L 256 242 Z" fill="#ffffff"/>
    <path d="M 196 222 L 196 268 Q 256 296 316 268 L 316 222 L 256 250 Z" fill="#ffffff" fill-opacity="0.92"/>
    <path d="M 364 200 L 364 248" stroke="#fbbf24" stroke-width="5" stroke-linecap="round"/>
    <circle cx="364" cy="256" r="11" fill="url(#goldGrad)"/>
  </g>
  <g filter="url(#shadow)">
    <circle cx="256" cy="360" r="58" fill="#ffffff"/>
    <path d="M 230 360 L 250 380 L 286 342" stroke="url(#mainGrad)" stroke-width="11" stroke-linecap="round" stroke-linejoin="round" fill="none"/>
  </g>
</svg>
